<svg xmlns="http://www.w3.org/2000/svg" xmlns:xlink="http://www.w3.org/1999/xlink" width="500" zoomAndPan="magnify" viewBox="0 0 375 374.999991" height="500" preserveAspectRatio="xMidYMid meet" version="1.2"><defs><clipPath id="9022294c79"><path d="M 38.355469 62.777344 L 336.855469 62.777344 L 336.855469 312.527344 L 38.355469 312.527344 Z M 38.355469 62.777344 "/></clipPath></defs><g id="6fadb792e8"><g clip-rule="nonzero" clip-path="url(#9022294c79)"><path style=" stroke:none;fill-rule:nonzero;fill:#ff3131;fill-opacity:1;" d="M 336.644531 100.636719 L 307.070312 130.210938 C 291.207031 113.667969 272.113281 105.390625 249.792969 105.390625 C 227.691406 105.390625 208.796875 113.410156 193.105469 129.445312 C 190.882812 131.714844 188.816406 134.050781 186.914062 136.457031 C 182.207031 142.386719 178.453125 148.722656 175.664062 155.457031 L 134.097656 225.65625 L 111.308594 264.152344 L 143.769531 264.152344 C 148.023438 270.386719 152.75 276.175781 157.921875 281.453125 C 167.769531 291.511719 179.332031 299.90625 192.335938 306.480469 L 38.355469 306.480469 C 38.355469 306.480469 149.980469 115.027344 158.34375 105.226562 C 160.09375 103.179688 161.898438 101.199219 163.777344 99.277344 C 174.65625 88.175781 187.578125 79.328125 202.53125 72.757812 C 211.230469 68.9375 220.191406 66.226562 229.433594 64.628906 C 236.078125 63.484375 242.863281 62.902344 249.789062 62.902344 C 266.550781 62.902344 282.390625 66.222656 297.292969 72.847656 C 312.195312 79.476562 325.3125 88.742188 336.644531 100.636719 Z M 152.105469 99.902344 C 153.984375 97.703125 155.941406 95.5625 157.921875 93.542969 C 169.488281 81.730469 183.386719 72.21875 199.238281 65.253906 C 201.128906 64.425781 203.039062 63.644531 204.964844 62.902344 L 38.355469 62.902344 L 38.355469 105.230469 L 147.816406 105.230469 C 149.199219 103.410156 150.628906 101.628906 152.105469 99.902344 Z M 281.066406 263.140625 C 271.203125 267.558594 260.777344 269.769531 249.789062 269.769531 C 227.683594 269.769531 208.789062 261.71875 193.101562 245.628906 C 187.589844 239.980469 183.042969 233.917969 179.464844 227.453125 C 172.859375 215.515625 169.554688 202.199219 169.554688 187.5 C 169.554688 185.488281 169.621094 183.515625 169.746094 181.558594 L 137.726562 235.632812 C 137.769531 235.734375 137.808594 235.839844 137.851562 235.941406 C 139.105469 238.953125 140.441406 241.878906 141.867188 244.730469 C 144.347656 249.699219 147.097656 254.417969 150.097656 258.890625 L 150.535156 259.535156 C 152.992188 263.140625 155.628906 266.589844 158.410156 269.851562 C 158.476562 269.929688 158.539062 270.007812 158.605469 270.082031 C 159.035156 270.585938 159.472656 271.082031 159.90625 271.574219 C 160.0625 271.75 160.21875 271.925781 160.371094 272.101562 C 160.695312 272.457031 161.015625 272.804688 161.339844 273.15625 C 161.601562 273.441406 161.859375 273.730469 162.125 274.007812 C 162.234375 274.121094 162.347656 274.234375 162.453125 274.347656 C 162.890625 274.808594 163.324219 275.269531 163.773438 275.722656 C 164.417969 276.382812 165.074219 277.035156 165.734375 277.679688 C 165.910156 277.84375 166.082031 278.007812 166.25 278.171875 C 166.695312 278.609375 167.148438 279.039062 167.609375 279.460938 C 167.941406 279.773438 168.277344 280.082031 168.617188 280.386719 C 168.890625 280.636719 169.167969 280.886719 169.445312 281.132812 C 169.90625 281.539062 170.363281 281.945312 170.824219 282.347656 C 170.9375 282.445312 171.050781 282.546875 171.164062 282.640625 C 178.617188 289.039062 186.945312 294.578125 196.03125 299.167969 L 197.175781 299.746094 C 198.929688 300.609375 200.714844 301.441406 202.53125 302.238281 C 217.488281 308.8125 233.238281 312.101562 249.789062 312.101562 C 266.550781 312.101562 282.390625 308.785156 297.292969 302.15625 C 312.191406 295.527344 325.308594 286.261719 336.636719 274.367188 L 307.066406 244.789062 C 299.589844 252.605469 290.921875 258.71875 281.066406 263.140625 Z M 281.066406 263.140625 "/></g></g></svg>